<svg width="31" height="31" viewBox="0 0 31 31" fill="none" xmlns="http://www.w3.org/2000/svg">
<g clip-path="url(#clip0_1428_79513)">
<path fill-rule="evenodd" clip-rule="evenodd" d="M31 15.5C31 24.0604 24.0604 31 15.5 31C6.93959 31 0 24.0604 0 15.5C0 6.93959 6.93959 0 15.5 0C24.0604 0 31 6.93959 31 15.5ZM16.0556 11.4428C14.548 12.0698 11.5349 13.3677 7.01635 15.3364C6.28261 15.6282 5.89824 15.9136 5.86325 16.1927C5.80411 16.6644 6.39483 16.8502 7.19922 17.1031C7.30864 17.1375 7.42201 17.1732 7.53824 17.211C8.32965 17.4682 9.39422 17.7692 9.94765 17.7811C10.4497 17.792 11.01 17.585 11.6286 17.1602C15.8504 14.3104 18.0297 12.8699 18.1666 12.8389C18.2631 12.817 18.3968 12.7894 18.4875 12.87C18.5781 12.9505 18.5692 13.1031 18.5596 13.144C18.5011 13.3935 16.1823 15.5492 14.9824 16.6648C14.6083 17.0126 14.3429 17.2593 14.2887 17.3156C14.1672 17.4418 14.0433 17.5612 13.9243 17.6759C13.1891 18.3847 12.6377 18.9162 13.9548 19.7842C14.5878 20.2013 15.0943 20.5462 15.5996 20.8903C16.1514 21.2661 16.7018 21.6409 17.4139 22.1077C17.5953 22.2267 17.7686 22.3502 17.9374 22.4705C18.5796 22.9283 19.1565 23.3397 19.8693 23.2741C20.2835 23.236 20.7113 22.8465 20.9286 21.685C21.4421 18.9399 22.4514 12.9922 22.6847 10.5413C22.7051 10.3265 22.6794 10.0517 22.6588 9.93107C22.6381 9.81044 22.595 9.63856 22.4382 9.51132C22.2525 9.36063 21.9658 9.32885 21.8375 9.33111C21.2546 9.34138 20.3601 9.65239 16.0556 11.4428Z" fill="black"/>
</g>
<defs>
<clipPath id="clip0_1428_79513">
<rect width="31" height="31" fill="white"/>
</clipPath>
</defs>
</svg>
