<svg width="31" height="31" viewBox="0 0 31 31" fill="none" xmlns="http://www.w3.org/2000/svg">
<g clip-path="url(#clip0_1427_79289)">
<path fill-rule="evenodd" clip-rule="evenodd" d="M15.8321 24.4168H15.8357C20.8981 24.4168 25.0182 20.2979 25.0203 15.2352C25.0212 12.7819 24.0667 10.475 22.3327 8.73952C20.5986 7.00406 18.2926 6.04773 15.8394 6.04676C10.7733 6.04676 6.65308 10.1654 6.65109 15.2278C6.65042 16.9626 7.13595 18.6523 8.05529 20.1142L8.27374 20.4615L7.34586 23.8496L10.822 22.938L11.1574 23.137C12.5675 23.9736 14.184 24.4161 15.8321 24.4168ZM18.987 16.6423C19.2401 16.7344 20.5976 17.4021 20.8737 17.5403C20.9275 17.5672 20.9778 17.5915 21.0245 17.6141C21.2172 17.7072 21.3473 17.77 21.4028 17.8627C21.4719 17.9778 21.4719 18.5305 21.2419 19.1753C21.0117 19.82 19.9086 20.4085 19.3782 20.4877C18.9024 20.5588 18.3005 20.5884 17.6391 20.3784C17.2381 20.2511 16.7238 20.0813 16.065 19.797C13.4773 18.6799 11.7282 16.1728 11.397 15.698C11.3737 15.6646 11.3574 15.6412 11.3483 15.6291L11.3459 15.626C11.1993 15.4303 10.2209 14.1248 10.2209 12.7738C10.2209 11.5023 10.8457 10.8358 11.1333 10.5291C11.1529 10.5081 11.171 10.4888 11.1873 10.4711C11.4404 10.1948 11.7394 10.1257 11.9236 10.1257C12.1076 10.1257 12.2919 10.1274 12.4527 10.1354C12.4726 10.1364 12.4932 10.1363 12.5145 10.1362C12.6754 10.1352 12.8761 10.134 13.074 10.6093C13.15 10.7919 13.2612 11.0624 13.3785 11.3479C13.6162 11.9264 13.879 12.5661 13.9252 12.6587C13.9943 12.7968 14.0403 12.9581 13.9483 13.1422C13.9345 13.1698 13.9218 13.1958 13.9096 13.2206C13.8404 13.3619 13.7896 13.4657 13.6722 13.6028C13.6261 13.6565 13.5786 13.7144 13.531 13.7723C13.4359 13.8881 13.3408 14.0039 13.258 14.0863C13.1198 14.2239 12.9759 14.3733 13.1369 14.6496C13.298 14.926 13.8522 15.8299 14.6729 16.5618C15.5554 17.3487 16.3224 17.6812 16.711 17.8497C16.7868 17.8826 16.8483 17.9092 16.8933 17.9317C17.1694 18.07 17.3305 18.0469 17.4915 17.8627C17.6526 17.6785 18.1817 17.0568 18.3658 16.7804C18.5499 16.5041 18.7339 16.5502 18.987 16.6423Z" fill="black"/>
<path fill-rule="evenodd" clip-rule="evenodd" d="M15.5 31C24.0604 31 31 24.0604 31 15.5C31 6.93959 24.0604 0 15.5 0C6.93959 0 0 6.93959 0 15.5C0 24.0604 6.93959 31 15.5 31ZM15.8357 4.18107C18.7917 4.18228 21.5662 5.33273 23.6525 7.42075C25.7389 9.50877 26.8871 12.2842 26.886 15.2359C26.8835 21.3267 21.926 26.2825 15.8358 26.2825H15.8313C13.9818 26.2818 12.1646 25.818 10.5506 24.938L4.6927 26.4741L6.26038 20.7497C5.29338 19.0746 4.78461 17.174 4.7854 15.2271C4.78782 9.13628 9.74497 4.18107 15.8357 4.18107Z" fill="black"/>
</g>
<defs>
<clipPath id="clip0_1427_79289">
<rect width="31" height="31" fill="white"/>
</clipPath>
</defs>
</svg>
